HIERARCHY
ROOT root
{
	OFFSET	0	13.1	24.9
	CHANNELS 6  Xposition Yposition Zposition Xrotation Yrotation Zrotation
	JOINT spine_1
	{
		OFFSET	0	9.99999	0
		CHANNELS 3  Xrotation Yrotation Zrotation
		JOINT spine_2
		{
			OFFSET	0	112	-10
			CHANNELS 3  Xrotation Yrotation Zrotation
			JOINT spine_3
			{
				OFFSET	0	206.5	19.3
				CHANNELS 3  Xrotation Yrotation Zrotation
				JOINT spine_4
				{
					OFFSET	0	110.4	14.6
					CHANNELS 3  Xrotation Yrotation Zrotation
					JOINT neck_1
					{
						OFFSET	0	71.8	-50.3
						CHANNELS 3  Xrotation Yrotation Zrotation
						JOINT neck_2
						{
							OFFSET	0	86.2	-25.8
							CHANNELS 3  Xrotation Yrotation Zrotation
							JOINT head_ee
							{
								OFFSET	0	179.8	-8.7
								CHANNELS 3  Xrotation Yrotation Zrotation
								End Site
								{
									OFFSET	1	0	0
								}
							}
						}
					}
					JOINT left_clavicle
					{
						OFFSET	-43.2	22.4	-70.8
						CHANNELS 3  Xrotation Yrotation Zrotation
						JOINT left_shoulder
						{
							OFFSET	-93.9	-5.79999	48.7
							CHANNELS 3  Xrotation Yrotation Zrotation
							JOINT left_elbow
							{
								OFFSET	-291.4	-30.8	15.2
								CHANNELS 3  Xrotation Yrotation Zrotation
								JOINT left_lowarm_twist
								{
									OFFSET	-110.7	-3.89999	13.6
									CHANNELS 3  Xrotation Yrotation Zrotation
									JOINT left_hand
									{
										OFFSET	-110.7	-3.89999	13.6
										CHANNELS 3  Xrotation Yrotation Zrotation
										JOINT left_ee
										{
											OFFSET	-80.8	-5.10001	12.1
											CHANNELS 3  Xrotation Yrotation Zrotation
											End Site
											{
												OFFSET	1	0	0
											}
										}
									}
								}
							}
						}
					}
					JOINT right_clavicle
					{
						OFFSET	43.2	22.4	-70.8
						CHANNELS 3  Xrotation Yrotation Zrotation
						JOINT right_shoulder
						{
							OFFSET	93.9	-5.79999	48.7
							CHANNELS 3  Xrotation Yrotation Zrotation
							JOINT right_elbow
							{
								OFFSET	291.4	-30.8	15.2
								CHANNELS 3  Xrotation Yrotation Zrotation
								JOINT right_lowarm_twist
								{
									OFFSET	110.7	-3.89999	13.6
									CHANNELS 3  Xrotation Yrotation Zrotation
									JOINT right_hand
									{
										OFFSET	110.7	-3.89999	13.6
										CHANNELS 3  Xrotation Yrotation Zrotation
										JOINT right_ee
										{
											OFFSET	80.8	-5.10001	12.1
											CHANNELS 3  Xrotation Yrotation Zrotation
											End Site
											{
												OFFSET	1	0	0
											}
										}
									}
								}
							}
						}
					}
				}
			}
		}
	}
	JOINT left_hip
	{
		OFFSET	-82.8	-127.5	0.300001
		CHANNELS 3  Xrotation Yrotation Zrotation
		JOINT left_knee
		{
			OFFSET	-28.2	-396.7	2.2
			CHANNELS 3  Xrotation Yrotation Zrotation
			JOINT left_ankle
			{
				OFFSET	-11.7	-411.3	35.4
				CHANNELS 3  Xrotation Yrotation Zrotation
				JOINT left_toes
				{
					OFFSET	0	-60	-88.6
					CHANNELS 3  Xrotation Yrotation Zrotation
					JOINT left_foot_ee
					{
						OFFSET	-22.5	-16.5	-42.2
						CHANNELS 3  Xrotation Yrotation Zrotation
						End Site
						{
							OFFSET	1	0	0
						}
					}
				}
			}
		}
	}
	JOINT right_hip
	{
		OFFSET	82.8	-127.5	0.300001
		CHANNELS 3  Xrotation Yrotation Zrotation
		JOINT right_knee
		{
			OFFSET	28.2	-396.7	2.2
			CHANNELS 3  Xrotation Yrotation Zrotation
			JOINT right_ankle
			{
				OFFSET	11.7	-411.3	35.4
				CHANNELS 3  Xrotation Yrotation Zrotation
				JOINT right_toes
				{
					OFFSET	0	-60	-88.6
					CHANNELS 3  Xrotation Yrotation Zrotation
					JOINT right_foot_ee
					{
						OFFSET	22.5	-16.5	-42.2
						CHANNELS 3  Xrotation Yrotation Zrotation
						End Site
						{
							OFFSET	1	0	0
						}
					}
				}
			}
		}
	}
}
MOTION
Frames: 8
Frame Time: 0.02
1519.23 695.913 -467.358 86.1862 -85.0503 83.0363 -1.15373 0.00476414 1.01043 -1.15316 -0.0595384 1.00868 -1.15384 -0.289792 0.967996 -1.15512 -0.133286 1.00161 -13.857 6.15751 -1.08275 -13.968 12.4042 0.907412 -0.0 0.0 -0.0 3.33141 17.6355 7.18444 -3.20518 -38.8728 70.5182 0.189962 -5.37592 0.00891842 -3.33823 -0.129515 0.406504 -1.42577 19.7031 -0.55209 -0.0 0.0 -0.0 9.56315 1.09516 -18.7984 7.23323 -3.38551 -72.6367 1.49767 36.5694 -0.494887 -81.0741 7.95794 -5.26399 -4.65625 -10.0835 26.6826 0.0 0.0 0.0 9.22094 14.8225 -10.5945 -34.6819 -0.163543 5.23966 31.4857 22.7599 -4.22362 0.931885 -0.0 -0.0 -0.0 0.0 -0.0 9.77809 6.06408 -3.41271 -14.4636 -0.320495 -2.1906 15.0132 11.1184 2.21014 15.5306 -0.0 -0.0 0.0 0.0 0.0 
1528.07 694.053 -465.414 90.3328 -84.964 88.2278 -1.13276 0.0169352 1.05205 -1.13215 -0.05004 1.051 -1.13266 -0.2899 1.01147 -1.13406 -0.126529 1.04455 -13.3147 6.0838 -1.31931 -13.4144 12.4026 0.599239 -0.0 0.0 -0.0 3.25788 17.7863 7.07476 -3.83288 -38.6628 71.1961 0.168578 -4.77375 0.00702686 -3.30895 -0.128276 0.40297 -1.45871 20.9815 -0.164736 -0.0 0.0 -0.0 9.23918 1.79643 -18.1501 8.25356 -2.65721 -72.5913 1.56045 37.7014 -0.53279 -81.2767 7.98358 -5.26073 -4.5978 -10.0099 26.3066 0.0 0.0 0.0 10.6878 13.9986 -10.9736 -32.4284 -0.0565843 4.91049 28.2552 23.7702 -3.87602 0.524417 -0.0 -0.0 -0.0 0.0 -0.0 8.77918 6.20415 -3.05729 -13.8653 -0.318268 -2.09883 15.6821 10.8315 2.29779 15.2745 -0.0 -0.0 0.0 0.0 0.0 
1534.82 691.973 -467.773 89.1379 -85.3592 86.838 -1.11833 -0.0319362 1.15181 -1.1176 -0.105159 1.14744 -1.11926 -0.365442 1.09277 -1.12088 -0.188285 1.13677 -13.6465 5.92277 -1.83049 -13.7477 12.4139 0.099124 -0.0 0.0 -0.0 3.08897 18.0426 6.8223 -4.90558 -38.1296 71.9483 0.152256 -4.31336 0.00573385 -3.12542 -0.120553 0.380816 -1.36722 21.8015 0.741507 -0.0 0.0 -0.0 9.14931 2.56231 -17.982 9.50609 -1.97905 -73.0994 1.6227 38.7906 -0.571327 -81.4542 8.00601 -5.2578 -4.63978 -9.65787 26.8376 0.0 0.0 0.0 11.5906 13.5714 -11.0881 -30.2995 0.0324777 4.59595 27.9479 24.3809 -3.85282 -0.044987 0.0 0.0 -0.0 0.0 -0.0 8.09973 6.49472 -2.53119 -12.9363 -0.312912 -1.9564 16.2996 10.511 2.37717 15.7685 -0.0 -0.0 0.0 0.0 0.0 
1544.39 689.969 -470.416 91.4199 -85.1325 89.0376 -1.10753 0.0636494 1.18868 -1.10675 -0.0121132 1.19033 -1.10644 -0.284434 1.15591 -1.10829 -0.0983232 1.18632 -13.011 5.73674 -2.28352 -13.0941 12.3421 -0.460699 -0.0 0.0 -0.0 2.9015 18.4623 6.54958 -5.70473 -37.9207 72.1471 0.167199 -4.73486 0.00691251 -3.13247 -0.120848 0.381668 -1.32777 22.7559 1.39734 -0.0 0.0 -0.0 8.95843 2.94495 -17.5927 10.7961 -1.53222 -72.8082 1.669 39.5798 -0.600581 -81.5421 8.01714 -5.25632 -4.66797 -9.57814 27.0947 0.0 0.0 0.0 10.8585 13.6658 -10.6569 -29.0941 0.0776956 4.41649 26.6812 24.902 -3.71222 -0.316664 0.0 0.0 -0.0 0.0 -0.0 7.41802 6.62551 -2.20069 -12.9726 -0.313165 -1.96195 16.6206 10.1659 2.41572 15.8164 -0.0 -0.0 0.0 0.0 0.0 
1551.57 689.775 -472.808 89.9949 -85.8935 87.3173 -1.08754 0.00432422 1.33917 -1.08655 -0.0808915 1.33673 -1.0878 -0.384527 1.28279 -1.09005 -0.177128 1.32741 -11.7422 4.87449 -4.26851 -11.7597 11.9968 -2.75897 -0.0 0.0 -0.0 2.84992 18.7411 6.48104 -6.94532 -37.4278 72.1345 0.193808 -5.4841 0.00928231 -1.86148 -0.0692965 0.227597 -0.801391 28.0494 6.60103 -0.0 0.0 -0.0 9.04304 4.82311 -17.7911 11.3476 -0.207314 -71.7749 1.64152 39.1136 -0.583159 -80.4261 7.87587 -5.2738 -4.23699 -8.52811 24.6343 0.0 0.0 0.0 11.905 12.9829 -10.2623 -23.3124 0.241618 3.5447 23.3358 24.3403 -3.28743 -4.5191 0.0 0.0 -0.0 0.0 -0.0 6.72782 6.8334 -1.96564 -10.9097 -0.293219 -1.64609 20.4572 10.3289 2.92052 14.0079 -0.0 -0.0 0.0 0.0 0.0 
1558.92 691.629 -476.336 89.0915 -86.0 86.3361 -1.11818 -0.0281866 1.3792 -1.11712 -0.115883 1.37462 -1.11925 -0.427991 1.31143 -1.12159 -0.215524 1.36256 -10.5659 4.11782 -5.31246 -10.527 11.3083 -4.10324 -0.0 0.0 -0.0 2.78019 18.8972 6.38136 -7.69321 -37.0999 72.1606 0.196644 -5.56387 0.00955534 -2.09736 -0.0786047 0.256275 -0.662887 28.8662 7.67857 -0.0 0.0 -0.0 9.05868 5.96752 -17.8285 11.2421 -0.0259684 -71.0629 1.64981 39.2548 -0.588395 -79.8807 7.8067 -5.28133 -4.03819 -7.97858 23.5434 0.0 0.0 0.0 12.5715 13.3279 -10.1524 -19.163 0.304659 2.91125 21.0745 25.6587 -3.02074 -6.12157 0.0 0.0 -0.0 0.0 -0.0 5.77748 6.87384 -1.48239 -9.83882 -0.278383 -1.48243 21.5519 10.7834 3.06689 12.4841 -0.0 -0.0 0.0 0.0 0.0 
1564.92 692.047 -476.698 89.2686 -86.5467 87.7602 -1.04787 0.0240447 1.37463 -1.04682 -0.0634672 1.37338 -1.04766 -0.375021 1.32272 -1.05007 -0.161437 1.36534 -9.86051 3.47808 -5.97374 -9.78384 10.5928 -4.98549 -0.0 0.0 -0.0 2.87572 18.9385 6.52684 -8.25608 -36.8396 72.4711 0.20552 -5.81331 0.0104351 -1.67359 -0.0619664 0.204726 -0.292766 29.1286 9.78894 -0.0 0.0 -0.0 9.20652 6.69702 -18.1424 11.5259 0.604111 -70.7181 1.66449 39.5037 -0.597708 -79.7152 7.7857 -5.28349 -3.97214 -7.25056 23.5009 0.0 0.0 0.0 13.1147 13.0876 -9.65458 -16.5715 0.320703 2.51399 19.3845 25.7294 -2.79911 -7.82012 0.0 0.0 -0.0 0.0 -0.0 5.17059 6.98053 -1.03613 -7.5407 -0.236235 -1.13233 22.2832 11.4181 3.16992 11.0965 -0.0 -0.0 0.0 0.0 0.0 
1568.26 689.461 -483.824 90.8817 -86.8064 88.3621 -1.0633 0.0296378 1.25927 -1.06242 -0.0505464 1.2586 -1.06294 -0.336576 1.21382 -1.06497 -0.140667 1.25174 -9.64276 3.78604 -4.16188 -9.61487 9.95081 -3.15263 -0.0 0.0 -0.0 2.95033 18.9605 6.64003 -8.5372 -36.5753 72.3267 0.201785 -5.70837 0.0100602 -1.18349 -0.0432003 0.144959 0.117391 28.8286 11.9314 -0.0 0.0 -0.0 8.84288 6.06019 -17.3718 11.1685 0.89716 -70.6296 1.89618 43.2032 -0.75087 -79.1019 7.70779 -5.29094 -3.90566 -6.68607 23.3541 0.0 0.0 0.0 13.079 13.0806 -9.22667 -14.8856 0.321489 2.25534 17.3105 24.5869 -2.50405 -9.04558 0.0 0.0 -0.0 0.0 -0.0 5.37414 7.14805 -0.878238 -7.56458 -0.236745 -1.13596 24.2054 12.2659 3.42373 10.3545 -0.0 -0.0 0.0 0.0 0.0 
